<?xml version="1.0" encoding="UTF-8"?>
<svg version="1.1" viewBox="0 0 2048 1536" width="1280" height="1280" xmlns="http://www.w3.org/2000/svg">
<path transform="translate(1017,159)" d="m0 0h25l10 3 12 8 8 8 8 14 4 13 1 14v920l31-31 8-7h2v-2h2l2-4 12-13 7-8 1-466 2-6 5-1h520l10 2 16 5 10 9 7 11 4 8 1 3 1 19-1 11-7 14-10 13-8 7-11 11h-2l-2 4-17 17-7 8-10 9-53 53h-2l-2 4-14 14-7 8-12 11-7 7h-2v2l-18 18-7 8-12 11-4 2-2 4-18 18-7 8-13 12-10 9-7 8-9 9-7 8-10 9-6 5-3 4h-2v2h-2l-2 4-12 12-7 8-10 9-15 14-12 12h-3v-174l7-8 28-28 8-7 15-16 23-23 8-7 11-12 24-24 8-7 9-10 1-2h-221l1 35 120 1 4 1 1 4-3 6-13 13-8 7-19 19-7 8-13 13-8 7-15 15-14 16-8 7-11 7-6 3-1 224-1 15-9 11-7 7-10 8-21 21-9 11-14 13-8 7-8 8-7 8-12 13-10 9-8 7-7 8h-2l-2 4-9 9-7 8-10 9-8 7-9 9-7 8-2 3h-2l-2 4-7 7-16 14-12 12-1 2h-2l-2 4-10 7-17 5h-15l-15-5-10-7-10-10-9-17v-944l-8 7-13 13-8 7-66 66-7 8-72 72-8 7-12 13-6 5-3 4h-2v2l-8 7-14 14-11 12-70 70-8 7-11 12h-2v2l-8 7-7 8-5 4-3 4h-2v2l-8 7-42 42-7 9h216l1-124 4-6 3-3h2l2-4 8-9 9-7 4-5 8-7 15-15 7-8 7-7 8-7 18-18 7-8 5-6 14-10 4 1v366l-4 3-45 1h-462l-17-1-12-3-11-7-8-8-9-15-2-5-1-10v-9l1-11 8-16 14-15 50-50 6-5 5-5 14-15 67-67h2v-2h2v-2h2l2-4 38-38h2v-2h2v-2l6-5 7-8 31-31h2v-2h2l2-4 3-1v-2h2l2-4 72-72h2v-2h2v-2l8-7 5-5 12-13 14-14h2l2-4 3-1v-2l8-7 4-5 5-5 11-12 8-7 6-5 12-12 1-2h2l1-3 5-5 5-6 8-7h2v-2h2l2-4 8-7 17-17 11-12 13-12 17-17 9-11 11-10 8-7 15-15 7-8 13-13 8-7 18-18 9-11 11-10 8-7 25-25 11-6z" fill="#FC97C2"/>
<path transform="translate(829,1006)" d="m0 0h25l5 2 1 1 1 59 1 8 7 3 5 1h12l1-72 2-2h26l4 4v100l-4 15-5 9-9 7-10 2-55 1-6-2-1-3v-19l3-3 49-1 5-5 1-4-38-1-13-8-8-9-3-5v-74l1-3z" fill="#FC97C2"/>
<path transform="translate(609,1006)" d="m0 0h64l16 6 9 6 7 9 6 16 1 9-1 15-5 15-6 9-7 7-12 7-3 1-37 1v20l-1 14-3 3-2 1h-20l-7-2-2-2-1-73v-52l1-8zm32 24-1 5v45l3 1 18-1 10-4 4-5 2-5 1-17-3-8-3-5-6-4-7-2z" fill="#FC97C2"/>
<path transform="translate(1199,444)" d="m0 0h17l10 3 11 6 13 13 7 10 3 8v26l-6 12-9 11-9 8-10 5-7 2h-26l-10-4-9-7-7-7-8-13-5-14v-11l4-14 6-11 11-12 10-7z" fill="#FC97C2"/>
<path transform="translate(331,1006)" d="m0 0h60l13 5 9 6 7 12v77h-76l-8-3-9-8-5-11-2-6v-9l5-12 8-9 9-4 6-2h36l1-8-7-1-46-1-3-5v-17zm30 62-8 1v7l2 2 4 1h25l2-1v-10z" fill="#FC97C2"/>
<path transform="translate(725,1006)" d="m0 0h62l17 8 7 8 4 8v74l-1 2h-76l-10-5-7-8-4-9-1-4v-12l4-11 8-9 10-5 3-1h39l-1-7-5-2-48-1-2-2v-23zm29 62-7 2-1 2 3 5 6 2h23l4-3v-7l-3-1z" fill="#FC97C2"/>
<path transform="translate(562,968)" d="m0 0h14l21 1 1 1v22l-1 1-20 1-4 4-2 7 22 1 4 2 1 2v17l-4 5-4 1-19 1-1 70-3 2h-26l-2-3v-70h-10l-9-2-2-5v-12l3-7 4-1h14v-23l7-9 6-5z" fill="#FC97C2"/>
<path transform="translate(433,969)" d="m0 0h31l2 2v24l-1 110-5 2-24-1-4-4-1-5v-120l1-7z" fill="#FC97C2"/>
<path transform="translate(484,1006)" d="m0 0h23l3 1 1 2 1 27v38l-1 31-1 1h-29l-3-3-1-3v-88l2-4z" fill="#FC97C2"/>
<path transform="translate(479,974)" d="m0 0h31l1 1v24h-32l-2-2v-20z" fill="#FC97C2"/>
</svg>
