<?xml version="1.0" encoding="UTF-8"?>
<svg version="1.1" viewBox="0 0 2048 1536" width="1280" height="1280" xmlns="http://www.w3.org/2000/svg">
<path transform="translate(1016,161)" d="m0 0h31l12 6 9 7 8 9 5 8 4 13 1 5 1 24v894l-1 14 3-1 9-11 15-15 11-9 9-9 9-11 6-5 3-6 1-464 2-5 3-2h523l14 3 11 4 10 9 7 11 5 10 1 16-1 15-7 14-9 11-17 16-19 19-9 11-14 12-25 25-7 8-15 14-20 20-9 11-14 12-24 24-8 10-13 11-22 22-8 10-9 8-8 7-21 21-7 9h-2v2l-10 8-23 23-7 8-5 5-17 16-18 18-3 1-1-1-1-34v-78l1-62 12-12 7-8 11-11 11-9 9-10 7-8 8-7 4-5 8-7 7-7 6-5 7-8 29-29 8-7 7-9-220-1v35l124 1 1 1v7l-7 8-7 7-10 8-7 8-8 7-9 11-13 13-11 9-6 7-5 5-14 15-9 9-10 7-9 3v226l-1 13-8 10-7 8-11 9-25 25-9 11-13 11-20 20-14 16-11 9-21 21-9 11-14 12-20 20-7 8-6 7-11 9-28 28-10 5-15 4h-12l-16-5-11-8-8-8-6-10-4-8-1-10v-934l-8 7-4 5h-2v2h-2l-2 4-8 7-14 14h-2l-2 4-47 47-15 16-21 21-8 7-5 5-9 10-11 11-8 7-51 51-6 5-6 8-5 5-16 15-9 10-9 8-5 5-14 15-9 9-8 7-12 12-5 6-8 7-75 75-4 6h217v-124l3-5 10-10 3-5 10-7 7-8 12-12 5-4 7-8 9-10 8-6 7-8h2l2-4 16-16 7-8 11-8 5-1 1 1v365l-4 4h-524l-6-2-7-1-11-8-9-10-8-13-2-12v-14l1-10 8-14 9-10 38-38 4-5 8-7 78-78 5-6 8-7 34-34 4-5 8-7 28-28 7-8 13-12 28-28 5-6 8-7 28-28 7-8 12-11 21-21h2l2-4 10-11 8-7 28-28 7-8 14-13 5-5 8-7 7-8 12-13 16-14 7-8 17-17 6-7 7-5 6-7 6-5 5-6 12-12 7-8 13-12 7-6 7-8 12-12 7-8 9-7 7-8 6-5 6-7 5-5 9-10 10-9 5-5 9-8 7-8 6-5 5-5z" fill="#03673C"/>
<path transform="translate(838,1007)" d="m0 0h10l10 1 3 2 1 4 1 63 8 4 17 2 1-73 1-2 6-1h15l7 1 3 4v99l-5 18-6 9-8 5-11 2h-58l-3-7v-11l2-7 1-1 50-1 5-6 1-3-37-1-12-6-8-8-5-9v-73l3-4z" fill="#06693E"/>
<path transform="translate(620,1007)" d="m0 0h50l10 2 16 8 7 6 5 8 5 15v23l-6 17-8 10-11 8-6 3-5 1-34 1-1 34-6 4h-14l-10-1-4-3-1-3v-121l2-10 2-1zm23 24-1 1v50h20l12-5 5-9 1-16-3-9-4-6-8-4-10-2z" fill="#096B41"/>
<path transform="translate(1208,445)" d="m0 0 14 2 10 4 9 6 12 12 8 13 1 3v27l-6 11-9 12-8 7-14 7-6 1h-23l-9-3-11-8-7-7-8-13-5-13v-14l6-17 6-9 10-10 11-7 11-3z" fill="#05683E"/>
<path transform="translate(336,1007)" d="m0 0h53l8 2 16 8 7 10 2 4v76l-2 1h-74l-7-3-8-6-5-8-4-10v-11l7-14 7-7 13-5h37l1-8-6-1-47-1-2-2-1-4v-17l2-3zm23 63-4 1-1 3 2 5 2 1 28 1 2-1v-9l-1-1z" fill="#086A40"/>
<path transform="translate(733,1007)" d="m0 0h49l10 2 15 8 6 7 3 5v78l-2 1h-74l-11-6-6-7-4-9-1-4v-13l3-9 9-10 12-6 39-1-1-7-3-1-30-1h-18l-3-2-1-4v-14l2-6zm20 63-5 3 2 5 4 2 10 1h15l5-3v-6l-2-2z" fill="#096B41"/>
<path transform="translate(557,970)" d="m0 0h36l7 2v22l-5 1-19 1-2 5-2 6 23 1 5 5v16l-5 5-6 1h-17v70l-5 3h-24l-2-2v-71h-9l-9-2-2-2-1-5v-11l3-6 2-1 15-1 1-23 11-12z" fill="#0A6B42"/>
<path transform="translate(435,971)" d="m0 0h31l1 1v135l-2 1h-27l-4-4-1-3v-123z" fill="#086A40"/>
<path transform="translate(484,1008)" d="m0 0h26l3 4v94l-3 2h-27l-3-3-1-2v-89l3-5z" fill="#086A41"/>
<path transform="translate(484,975)" d="m0 0 28 1 1 1v23l-1 1h-31l-2-3v-19l1-3z" fill="#0B6C43"/>
</svg>
